<svg width="273" height="29" viewBox="0 0 273 29" fill="none" xmlns="http://www.w3.org/2000/svg">
<g clip-path="url(#clip0_192_9636)">
<path d="M8.85107 2.92065C8.42173 2.92065 8.05371 3.28866 8.05371 3.71801V9.43096H23.2254L16.3471 2.92065H8.85107Z" fill="#4E4E4E"/>
<path d="M23.7779 11.2141C23.7779 10.7848 23.4099 10.4167 22.9805 10.4167H17.2676V25.5885L23.8392 18.7101L23.7779 11.2141Z" fill="#4E4E4E"/>
<path d="M15.4837 26.079C15.9131 26.079 16.2811 25.7109 16.2811 25.2816V19.5073H1.10938L7.98769 26.079H15.4837Z" fill="#4E4E4E"/>
<path d="M0.562305 17.7855C0.562305 18.2148 0.93032 18.5828 1.35967 18.5828H7.07261V3.41113L0.500977 10.2894V17.7811" fill="#4E4E4E"/>
<path d="M64.5523 3.32715H56.3604V20.295H61.3744V14.3181H65.6519C70.5923 14.3181 73.544 11.8821 73.544 8.78844C73.4756 5.24228 70.8922 3.32715 64.5523 3.32715ZM68.5351 8.70952C68.5351 9.8144 67.9459 11.5138 64.9206 11.5138H61.3797V6.20511H64.9206C67.8669 6.19985 68.5351 7.60463 68.5351 8.70952Z" fill="#4E4E4E"/>
<path d="M218.199 6.94177C216.278 6.94177 214.584 7.60471 213.553 8.56227H213.479V3.40088H209.275V20.3688H213.479V11.3718C214.437 10.267 215.768 9.825 216.873 9.825C219.898 9.825 219.898 11.7454 219.898 14.2498V20.374H224.102V12.9239C224.17 9.96179 223.36 6.94177 218.199 6.94177Z" fill="#4E4E4E"/>
<path d="M179.618 6.94189C177.697 6.94189 175.929 7.60483 174.898 8.56239H174.824V7.23653H170.694V20.3689H174.898V11.372C175.856 10.2671 177.187 9.82512 178.365 9.82512C181.391 9.82512 181.391 11.7455 181.391 14.2499V20.3742H185.595V12.9241C185.521 9.96191 184.784 6.94189 179.618 6.94189Z" fill="#4E4E4E"/>
<path d="M206.244 17.0437C205.066 17.3384 203.292 17.7803 200.788 17.7803C196.363 17.7803 193.78 15.418 193.78 11.8771C193.78 8.40985 196.511 6.0475 200.346 5.82652C202.188 5.75286 203.813 6.0475 204.992 6.34213L206.76 3.7588C204.766 3.24319 202.335 3.02222 200.046 3.02222C192.891 3.02222 188.613 6.63677 188.613 11.7982C188.613 17.7751 194.369 20.3531 200.12 20.5005C201.888 20.5741 204.25 20.2795 206.244 19.8375V17.0437Z" fill="#4E4E4E"/>
<path d="M88.8911 15.423L84.5399 3.32715H76.5742V20.2898H81.3673V6.86804H81.662L86.6076 20.2898H91.1061L96.0465 6.86804H96.3412V20.2898H101.134V3.32715H93.2422L88.8911 15.423Z" fill="#4E4E4E"/>
<path d="M121.053 13.7237C121.053 9.07792 117.291 6.71558 112.498 6.71558C107.705 6.71558 103.943 9.00426 103.943 13.7237C103.943 18.3695 107.705 20.7318 112.498 20.7318C117.291 20.7318 121.053 18.3748 121.053 13.7237ZM116.555 13.7237C116.555 16.307 115.229 18.0012 112.498 18.0012C109.768 18.0012 108.442 16.2334 108.442 13.7237C108.442 11.1404 109.768 9.37257 112.498 9.37257C115.224 9.44622 116.555 11.1456 116.555 13.7237Z" fill="#4E4E4E"/>
<path d="M142.441 17.7118C140.005 17.7118 138.827 15.7914 138.827 13.729C138.827 11.7349 139.784 9.59881 142.589 9.59881C145.025 9.59881 146.203 11.4403 146.203 13.6553C146.13 15.5705 145.172 17.7118 142.441 17.7118ZM146.35 7.1628V8.41501H146.277C145.393 7.5311 143.914 6.86816 141.484 6.86816C136.617 6.86816 134.476 10.4091 134.476 13.6553C134.476 17.4172 136.691 20.2952 141.189 20.4425C143.478 20.5161 145.246 19.5586 146.13 18.7483H146.203C146.203 18.7483 146.203 19.043 146.203 19.2639C146.203 21.258 145.393 23.2468 141.336 23.2468C139.716 23.2468 137.869 22.9521 136.101 22.1419V25.1672C137.796 25.7564 139.716 25.9774 141.931 25.9774C148.718 25.9774 150.339 22.2892 150.339 18.7483V7.16806L146.35 7.1628Z" fill="#4E4E4E"/>
<path d="M163.244 16.749C161.918 17.7802 160.513 18.0749 159.335 18.0749C157.935 18.1485 156.899 17.6329 156.899 16.307C156.899 14.6865 159.261 14.4656 161.765 14.4656H163.239V16.749M167.3 12.0296C167.3 8.63599 165.233 6.86816 160.44 6.86816C158.893 6.86816 156.604 7.01548 154.684 7.53109V10.1881C156.23 9.67247 158.077 9.37784 159.55 9.37784C161.692 9.37784 163.312 9.67247 163.312 12.2558H161.245C159.477 12.2558 157.114 12.4031 155.789 12.8451C154.242 13.3607 152.837 14.4656 152.837 16.386C152.837 19.4849 155.568 20.5898 158.593 20.5898C160.808 20.5898 162.428 20.0742 163.533 18.9693H163.607V20.2952H167.442V12.0348H167.3V12.0296Z" fill="#4E4E4E"/>
<path d="M237.156 16.749C235.83 17.7802 234.425 18.0749 233.247 18.0749C231.847 18.1485 230.811 17.6329 230.811 16.307C230.811 14.6865 233.173 14.4656 235.678 14.4656H237.151L237.156 16.749ZM241.213 12.0296C241.213 8.63599 239.145 6.86816 234.352 6.86816C232.805 6.86816 230.59 7.01548 228.596 7.53109V10.1881C230.143 9.67247 231.989 9.37784 233.463 9.37784C235.604 9.37784 237.224 9.67247 237.224 12.2558H235.157C233.389 12.2558 231.027 12.4031 229.701 12.8451C228.227 13.3607 226.749 14.4656 226.749 16.386C226.749 19.4849 229.406 20.5898 232.505 20.5898C234.72 20.5898 236.34 20.0742 237.445 18.9693H237.519V20.2952H241.355V12.0348H241.213V12.0296Z" fill="#4E4E4E"/>
<path d="M47.1416 3.32715V13.6552C47.1416 16.0176 46.0368 17.4171 43.6744 17.4171C42.9378 17.4171 41.312 17.4171 39.8389 17.0488V20.295C41.2384 20.516 43.0115 20.5897 44.411 20.5897C49.1304 20.5897 52.0821 18.08 52.0821 14.1708V3.32715H47.1416Z" fill="#4E4E4E"/>
<path d="M271.234 17.3384C269.614 17.7804 268.577 18.0014 266.883 18.0014C264.152 18.0014 262.311 16.9702 262.09 14.9024H272.786C272.86 14.3132 272.86 13.5029 272.786 12.9084C272.492 9.58846 270.424 7.00513 265.483 7.00513C260.396 7.00513 258.181 10.3987 258.181 13.9396C258.181 18.8064 261.795 20.6531 266.515 20.6531C268.509 20.6531 269.835 20.3585 271.234 19.9902V17.3384ZM265.773 9.37274C267.767 9.37274 268.724 10.4776 269.019 11.8824C269.093 12.1034 269.093 12.3244 269.093 12.5453H262.158C262.306 10.8512 263.489 9.37274 265.773 9.37274Z" fill="#4E4E4E"/>
<path d="M250.577 6.94189C247.404 6.94189 244.158 7.97312 244.158 10.9984C244.158 13.5817 246.3 14.392 248.73 14.9813C251.314 15.6442 252.198 15.8652 252.271 16.7491C252.345 17.7066 251.387 18.1486 249.099 18.1486C247.625 18.1486 245.631 17.7803 244.306 17.191V19.9953C246.447 20.5846 248.141 20.6583 249.614 20.6583C253.229 20.6583 256.475 19.627 256.475 16.5281C256.475 13.9448 254.634 12.9872 251.682 12.3243C249.541 11.8087 248.288 11.5877 248.288 10.7038C248.288 9.7462 249.393 9.45157 251.166 9.45157C252.492 9.45157 253.823 9.81986 254.781 10.1145L256.328 7.89946C254.855 7.31019 252.939 6.94189 250.577 6.94189Z" fill="#4E4E4E"/>
<path d="M132.117 6.94189C130.349 6.94189 128.65 7.38385 127.619 9.23059H127.545V7.23653H123.636V20.3689H127.987V13.95C127.987 12.5505 128.208 11.735 128.503 11.293C128.944 10.4828 129.534 10.0408 130.718 9.89352C131.307 9.81986 132.117 9.89352 132.712 10.1882L134.632 7.38385C133.811 7.08921 133.148 6.94189 132.117 6.94189Z" fill="#4E4E4E"/>
</g>
<defs>
<clipPath id="clip0_192_9636">
<rect width="272.436" height="28.12" fill="white" transform="translate(0.500977 0.439941)"/>
</clipPath>
</defs>
</svg>
